<svg xmlns="http://www.w3.org/2000/svg" width="1024" height="1024" viewBox="0 0 1024 1024">
<g>
<path d="M 815.27 538.12 C810.94,540.23 808.97,540.46 794.00,540.66 C784.92,540.78 776.71,540.65 775.75,540.37 C774.14,539.89 774.00,537.75 774.00,513.83 L 774.00 487.81 L 792.25 488.20 C812.69,488.63 816.72,489.62 819.43,494.87 C822.18,500.19 820.89,507.36 816.53,510.98 C815.09,512.17 815.29,512.62 818.44,515.21 C826.47,521.83 824.87,533.45 815.27,538.12 ZM 432.79 533.25 L 432.50 540.50 L 425.81 540.65 C422.14,540.73 418.87,540.54 418.56,540.23 C418.25,539.92 418.00,528.00 418.00,513.75 L 418.00 487.83 L 434.75 488.17 C450.45,488.48 451.78,488.66 455.91,491.00 C462.33,494.64 464.33,497.86 464.81,505.34 C465.27,512.63 463.00,518.37 458.29,521.82 L 455.50 523.85 L 460.75 531.41 C463.64,535.57 466.00,539.46 466.00,540.05 C466.00,540.76 463.33,541.04 458.31,540.85 L 450.63 540.56 L 446.06 533.30 C441.58,526.18 441.42,526.04 437.29,526.02 L 433.09 526.00 ZM 490.50 526.50 L 489.50 540.50 L 482.96 540.79 C479.36,540.95 476.10,540.76 475.71,540.37 C475.32,539.99 475.00,528.04 475.00,513.83 L 475.00 488.00 L 489.82 488.00 C507.61,488.00 513.32,489.32 517.86,494.50 C525.64,503.35 523.88,516.08 513.97,522.64 C510.43,524.98 508.49,525.44 500.18,525.93 ZM 418.67 458.84 C411.83,462.03 409.65,462.16 402.22,459.85 C392.24,456.74 385.91,444.06 389.35,434.09 C390.76,430.01 390.74,429.41 389.04,426.08 C386.99,422.06 382.32,417.02 380.61,416.97 C378.80,416.92 376.34,414.65 375.61,412.35 C374.75,409.64 377.24,407.00 380.65,407.00 C383.85,407.00 390.77,412.67 393.99,417.94 C395.35,420.17 396.76,422.00 397.11,422.00 C399.07,422.00 405.00,418.79 404.98,417.74 C404.93,414.99 401.01,408.05 398.62,406.49 C393.31,403.01 394.51,397.00 400.51,397.00 C403.54,397.00 404.36,397.62 407.47,402.23 C409.40,405.10 411.89,410.17 412.99,413.48 C414.77,418.83 415.47,419.73 419.23,421.54 C425.42,424.52 429.26,430.50 429.81,438.00 C430.49,447.43 426.29,455.29 418.67,458.84 ZM 522.05 452.00 C514.79,459.91 514.28,460.27 509.49,460.68 C501.18,461.40 495.00,455.83 495.00,447.63 C495.00,443.55 496.70,441.16 515.12,419.38 C531.11,400.46 532.80,399.00 538.63,399.00 C546.88,399.00 552.00,403.74 552.00,411.40 C552.00,414.29 551.29,415.47 547.99,418.13 C542.63,422.43 538.91,430.24 538.24,438.56 L 537.72 445.13 L 533.67 444.44 L 529.63 443.76 ZM 665.54 535.00 L 665.50 540.50 L 651.00 541.09 L 651.00 488.00 L 664.93 488.00 L 665.21 497.75 L 665.50 507.50 L 685.50 507.50 L 685.79 497.75 L 686.07 488.00 L 701.03 488.00 L 700.50 540.50 L 686.50 540.50 L 685.93 520.00 L 666.00 520.00 L 665.79 524.75 C665.68,527.36 665.57,531.97 665.54,535.00 ZM 271.72 536.00 L 269.60 541.00 L 262.86 541.00 C259.15,541.00 255.87,540.60 255.57,540.12 C255.28,539.64 260.10,527.82 266.30,513.87 L 277.58 488.50 L 293.07 488.50 L 304.11 513.00 C310.18,526.47 315.23,538.17 315.33,539.00 C315.46,540.19 313.99,540.56 308.18,540.80 L 300.87 541.09 L 298.73 536.05 L 296.60 531.00 L 273.83 531.00 ZM 408.00 529.06 L 408.00 541.00 L 387.00 541.00 C375.45,541.00 365.96,540.89 365.92,540.75 C365.88,540.61 365.67,528.69 365.45,514.25 L 365.05 488.00 L 407.00 488.00 L 407.00 500.00 L 380.00 500.00 L 380.00 508.00 L 404.10 508.00 L 403.50 519.50 L 391.69 519.78 L 379.89 520.06 L 380.19 524.28 L 380.50 528.50 L 394.25 528.78 ZM 510.84 413.53 C510.03,414.45 509.26,415.32 508.54,416.13 C501.24,424.44 498.74,427.28 497.57,426.81 C496.85,426.52 496.64,424.95 496.11,422.62 C493.90,412.71 488.46,406.30 478.54,401.92 C476.04,400.81 474.00,399.68 474.00,399.40 C474.00,398.34 498.14,370.00 499.77,369.14 C503.18,367.36 507.90,366.90 511.87,367.96 C517.30,369.43 520.22,373.65 520.82,380.91 C521.15,384.86 521.83,386.88 523.15,387.81 C524.17,388.53 525.65,390.36 526.43,391.86 C527.77,394.46 527.67,394.80 524.64,398.05 C522.87,399.95 516.66,406.91 510.84,413.53 ZM 748.90 539.40 C738.84,543.60 725.07,541.10 718.30,533.83 C713.49,528.68 712.61,524.63 712.20,505.75 L 711.81 488.00 L 726.83 488.00 L 727.17 504.93 C727.47,520.25 727.70,522.13 729.60,524.68 C732.16,528.13 737.87,529.84 741.42,528.22 C746.67,525.83 747.43,523.06 747.84,504.83 L 748.23 488.00 L 762.16 488.00 L 761.83 506.75 C761.53,523.67 761.29,525.89 759.35,529.50 C756.67,534.48 753.51,537.47 748.90,539.40 ZM 243.09 538.87 C233.49,543.00 224.29,542.29 214.71,536.68 C206.18,531.68 201.99,523.94 202.02,513.28 C202.05,504.71 204.24,499.72 210.33,494.36 C216.53,488.90 223.94,486.60 233.35,487.22 C240.51,487.68 245.61,489.62 251.00,493.93 L 253.50 495.92 L 248.83 500.62 L 244.16 505.31 L 241.08 502.72 C236.78,499.10 230.22,498.24 225.31,500.64 C217.99,504.23 215.09,512.49 218.38,520.36 C222.05,529.15 233.53,531.63 241.09,525.27 L 244.13 522.71 L 248.56 527.06 L 252.99 531.40 L 250.38 534.13 C248.94,535.63 245.66,537.76 243.09,538.87 ZM 613.79 459.10 C609.24,461.43 600.70,461.55 596.50,459.34 C587.95,454.85 583.43,446.86 584.20,437.58 C585.04,427.51 592.19,420.35 602.47,419.29 C609.78,418.54 615.88,420.87 620.41,426.17 C629.45,436.73 626.24,452.71 613.79,459.10 ZM 521.13 606.40 C515.72,609.14 508.69,609.06 503.39,606.21 C490.75,599.42 489.69,574.30 501.74,566.85 C503.64,565.68 507.49,564.60 510.78,564.33 C522.47,563.36 529.81,570.54 530.75,583.87 C531.52,594.75 528.04,602.91 521.13,606.40 ZM 576.50 458.58 C571.11,461.53 566.36,462.13 561.22,460.53 C551.34,457.45 546.00,450.25 546.00,440.00 C546.00,430.90 549.80,424.61 557.70,420.62 C561.85,418.52 571.16,418.52 575.30,420.62 C580.92,423.48 581.03,423.72 578.95,428.31 C576.61,433.46 576.44,443.80 578.61,449.50 C580.94,455.63 580.79,456.24 576.50,458.58 ZM 341.77 520.29 L 341.50 540.50 L 334.96 540.79 C331.36,540.95 328.10,540.76 327.71,540.37 C327.32,539.99 327.00,530.74 327.00,519.83 L 327.00 500.00 L 311.00 500.00 L 311.00 488.00 L 359.10 488.00 L 358.50 499.50 L 350.27 499.79 L 342.04 500.08 ZM 457.09 458.67 C451.47,461.64 443.12,461.77 437.81,458.97 C435.79,457.89 433.89,456.64 433.61,456.18 C433.32,455.71 434.08,453.34 435.29,450.92 C438.35,444.80 438.33,434.19 435.25,428.35 C432.78,423.67 433.06,423.13 439.29,420.52 C453.80,414.46 469.76,427.13 467.59,442.99 C466.71,449.42 462.39,455.87 457.09,458.67 ZM 644.50 529.50 L 644.50 540.50 L 624.94 540.77 C614.18,540.92 605.07,540.73 604.69,540.35 C604.31,539.98 604.00,528.04 604.00,513.83 L 604.00 488.00 L 618.96 488.00 L 619.50 528.50 ZM 597.80 534.75 L 597.50 540.50 L 578.44 540.77 C567.95,540.92 559.07,540.73 558.69,540.35 C558.31,539.98 558.00,528.04 558.00,513.83 L 558.00 488.00 L 573.00 488.00 L 573.00 529.00 L 598.10 529.00 ZM 480.49 606.44 C475.29,608.91 466.58,609.32 460.50,607.39 C453.26,605.10 452.89,604.62 454.84,599.97 C456.73,595.48 456.78,595.46 461.65,597.50 C469.08,600.60 476.00,598.95 476.00,594.07 C476.00,590.82 474.59,590.00 469.02,590.00 C465.30,590.00 465.20,589.90 464.83,585.99 C464.49,582.42 464.87,581.56 468.28,578.24 L 472.11 574.50 L 455.50 573.50 L 454.89 565.00 L 486.66 565.00 L 486.55 568.43 C486.46,570.90 485.26,573.25 482.22,576.86 C479.90,579.61 478.00,582.12 478.00,582.43 C478.00,582.74 478.93,583.00 480.08,583.00 C481.22,583.00 483.47,584.32 485.08,585.92 C487.50,588.35 488.00,589.67 488.00,593.67 C487.99,599.75 485.44,604.09 480.49,606.44 ZM 569.80 602.75 L 569.50 607.50 L 553.44 607.77 C544.61,607.92 537.07,607.74 536.69,607.36 C536.31,606.98 536.00,605.30 536.00,603.64 C536.00,601.15 537.77,598.81 546.00,590.45 C555.77,580.53 557.36,577.76 554.80,575.20 C552.96,573.36 546.52,573.76 543.90,575.88 C541.62,577.73 541.53,577.72 537.79,575.24 C533.49,572.40 533.31,571.91 535.75,569.78 C543.29,563.16 558.45,562.35 564.73,568.23 C570.37,573.50 568.58,582.10 559.99,591.01 C556.70,594.43 554.00,597.40 554.00,597.61 C554.00,597.83 557.62,598.00 562.05,598.00 L 570.11 598.00 ZM 546.00 488.00 L 546.00 540.00 L 531.00 540.00 L 531.00 488.00 ZM 483.34 441.19 C481.78,442.66 479.26,444.34 477.75,444.91 L 475.00 445.95 L 474.99 440.73 C474.98,429.80 469.98,420.59 461.21,415.36 L 455.93 412.20 L 458.53 410.15 C464.70,405.30 476.43,406.63 483.03,412.92 C491.35,420.86 491.49,433.47 483.34,441.19 ZM 456.51 392.56 C451.80,394.53 448.10,394.36 444.24,392.01 C437.76,388.05 435.44,381.01 438.53,374.65 C444.63,362.12 464.01,366.10 464.00,379.88 C463.99,385.73 461.08,390.65 456.51,392.56 ZM 571.10 391.74 C565.22,395.65 558.30,394.01 553.16,387.48 C550.00,383.45 550.17,376.14 553.53,372.14 C558.84,365.84 568.65,365.56 573.92,371.56 C579.71,378.16 578.50,386.81 571.10,391.74 ZM 508.10 596.40 C510.57,599.55 514.01,599.75 516.59,596.90 C519.01,594.23 519.79,580.87 517.76,577.00 C516.05,573.72 510.21,573.01 507.70,575.77 C504.07,579.79 504.30,591.57 508.10,596.40 ZM 433.00 500.00 L 433.00 515.00 L 438.78 515.00 C447.59,515.00 452.27,510.48 449.91,504.27 C448.47,500.47 447.43,500.03 439.75,500.02 ZM 490.75 514.43 C491.16,514.85 494.16,515.00 497.40,514.77 C502.30,514.42 503.70,513.89 505.65,511.62 C508.53,508.28 508.66,504.66 506.00,502.00 C504.38,500.38 502.67,500.00 497.00,500.00 L 490.00 500.00 L 490.00 506.83 C490.00,510.59 490.34,514.01 490.75,514.43 ZM 788.67 529.33 C789.03,529.70 792.53,530.00 796.44,530.00 C804.93,530.00 808.00,528.38 808.00,523.92 C808.00,520.07 805.27,519.00 795.43,519.00 L 788.00 519.00 L 788.00 523.83 C788.00,526.49 788.30,528.97 788.67,529.33 ZM 788.67 508.33 C789.77,509.44 799.72,509.08 802.43,507.85 C805.49,506.46 806.50,503.80 805.02,501.04 C804.06,499.25 802.96,499.00 795.96,499.00 L 788.00 499.00 L 788.00 503.33 C788.00,505.72 788.30,507.97 788.67,508.33 ZM 278.98 519.25 C279.00,520.10 290.37,520.30 291.20,519.46 C291.82,518.85 285.89,504.00 285.03,504.00 C284.45,504.00 278.95,517.88 278.98,519.25 ZM 402.00 442.00 C404.37,444.37 408.25,444.61 410.00,442.50 C413.01,438.88 410.41,433.00 405.81,433.00 C403.62,433.00 400.00,436.43 400.00,438.50 C400.00,439.33 400.90,440.90 402.00,442.00 Z" fill="rgb(2,1,1)"/>
<path d="M 0.00 512.00 L 0.00 0.00 L 512.00 0.00 L 1024.00 0.00 L 1024.00 512.00 L 1024.00 1024.00 L 512.00 1024.00 L 0.00 1024.00 L 0.00 512.00 ZM 480.49 606.44 C485.44,604.09 487.99,599.75 488.00,593.67 C488.00,589.67 487.50,588.35 485.08,585.92 C483.47,584.32 481.22,583.00 480.08,583.00 C478.93,583.00 478.00,582.74 478.00,582.43 C478.00,582.12 479.90,579.61 482.22,576.86 C485.26,573.25 486.46,570.90 486.55,568.43 L 486.66 565.00 L 470.77 565.00 L 454.89 565.00 L 455.19 569.25 L 455.50 573.50 L 463.81 574.00 L 472.11 574.50 L 468.28 578.24 C464.87,581.56 464.49,582.42 464.83,585.99 C465.20,589.90 465.30,590.00 469.02,590.00 C474.59,590.00 476.00,590.82 476.00,594.07 C476.00,598.95 469.08,600.60 461.65,597.50 C456.78,595.46 456.73,595.48 454.84,599.97 C452.89,604.62 453.26,605.10 460.50,607.39 C466.58,609.32 475.29,608.91 480.49,606.44 ZM 521.13 606.40 C528.04,602.91 531.52,594.75 530.75,583.87 C529.81,570.54 522.47,563.36 510.78,564.33 C507.49,564.60 503.64,565.68 501.74,566.85 C489.69,574.30 490.75,599.42 503.39,606.21 C508.69,609.06 515.72,609.14 521.13,606.40 ZM 569.80 602.75 L 570.11 598.00 L 562.05 598.00 C557.62,598.00 554.00,597.83 554.00,597.61 C554.00,597.40 556.70,594.43 559.99,591.01 C568.58,582.10 570.37,573.50 564.73,568.23 C558.45,562.35 543.29,563.16 535.75,569.78 C533.31,571.91 533.49,572.40 537.79,575.24 C541.53,577.72 541.62,577.73 543.90,575.88 C546.52,573.76 552.96,573.36 554.80,575.20 C557.36,577.76 555.77,580.53 546.00,590.45 C537.77,598.81 536.00,601.15 536.00,603.64 C536.00,605.30 536.31,606.98 536.69,607.36 C537.07,607.74 544.61,607.92 553.44,607.77 L 569.50 607.50 L 569.80 602.75 ZM 243.09 538.87 C245.66,537.76 248.94,535.63 250.38,534.13 L 252.99 531.40 L 248.56 527.06 L 244.13 522.71 L 241.09 525.27 C233.53,531.63 222.05,529.15 218.38,520.36 C215.09,512.49 217.99,504.23 225.31,500.64 C230.22,498.24 236.78,499.10 241.08,502.72 L 244.16 505.31 L 248.83 500.62 L 253.50 495.92 L 251.00 493.93 C245.61,489.62 240.51,487.68 233.35,487.22 C223.94,486.60 216.53,488.90 210.33,494.36 C204.24,499.72 202.05,504.71 202.02,513.28 C201.99,523.94 206.18,531.68 214.71,536.68 C224.29,542.29 233.49,543.00 243.09,538.87 ZM 748.90 539.40 C753.51,537.47 756.67,534.48 759.35,529.50 C761.29,525.89 761.53,523.67 761.83,506.75 L 762.16 488.00 L 755.19 488.00 L 748.23 488.00 L 747.84 504.83 C747.43,523.06 746.67,525.83 741.42,528.22 C737.87,529.84 732.16,528.13 729.60,524.68 C727.70,522.13 727.47,520.25 727.17,504.93 L 726.83 488.00 L 719.32 488.00 L 711.81 488.00 L 712.20 505.75 C712.61,524.63 713.49,528.68 718.30,533.83 C725.07,541.10 738.84,543.60 748.90,539.40 ZM 271.72 536.00 L 273.83 531.00 L 285.22 531.00 L 296.60 531.00 L 298.73 536.05 L 300.87 541.09 L 308.18 540.80 C313.99,540.56 315.46,540.19 315.33,539.00 C315.23,538.17 310.18,526.47 304.11,513.00 L 293.07 488.50 L 285.32 488.50 L 277.58 488.50 L 266.30 513.87 C260.10,527.82 255.28,539.64 255.57,540.12 C255.87,540.60 259.15,541.00 262.86,541.00 L 269.60 541.00 L 271.72 536.00 ZM 341.77 520.29 L 342.04 500.08 L 350.27 499.79 L 358.50 499.50 L 358.80 493.75 L 359.10 488.00 L 335.05 488.00 L 311.00 488.00 L 311.00 494.00 L 311.00 500.00 L 319.00 500.00 L 327.00 500.00 L 327.00 519.83 C327.00,530.74 327.32,539.99 327.71,540.37 C328.10,540.76 331.36,540.95 334.96,540.79 L 341.50 540.50 L 341.77 520.29 ZM 408.00 535.03 L 408.00 529.06 L 394.25 528.78 L 380.50 528.50 L 380.19 524.28 L 379.89 520.06 L 391.69 519.78 L 403.50 519.50 L 403.80 513.75 L 404.10 508.00 L 392.05 508.00 L 380.00 508.00 L 380.00 504.00 L 380.00 500.00 L 393.50 500.00 L 407.00 500.00 L 407.00 494.00 L 407.00 488.00 L 386.03 488.00 L 365.05 488.00 L 365.45 514.25 C365.67,528.69 365.88,540.61 365.92,540.75 C365.96,540.89 375.45,541.00 387.00,541.00 L 408.00 541.00 L 408.00 535.03 ZM 432.79 533.25 L 433.09 526.00 L 437.29 526.02 C441.42,526.04 441.58,526.18 446.06,533.30 L 450.63 540.56 L 458.31 540.85 C463.33,541.04 466.00,540.76 466.00,540.05 C466.00,539.46 463.64,535.57 460.75,531.41 L 455.50 523.85 L 458.29 521.82 C463.00,518.37 465.27,512.63 464.81,505.34 C464.33,497.86 462.33,494.64 455.91,491.00 C451.78,488.66 450.45,488.48 434.75,488.17 L 418.00 487.83 L 418.00 513.75 C418.00,528.00 418.25,539.92 418.56,540.23 C418.87,540.54 422.14,540.73 425.81,540.65 L 432.50 540.50 L 432.79 533.25 ZM 490.00 533.50 L 490.50 526.50 L 500.18 525.93 C508.49,525.44 510.43,524.98 513.97,522.64 C523.88,516.08 525.64,503.35 517.86,494.50 C513.32,489.32 507.61,488.00 489.82,488.00 L 475.00 488.00 L 475.00 513.83 C475.00,528.04 475.32,539.99 475.71,540.37 C476.10,540.76 479.36,540.95 482.96,540.79 L 489.50 540.50 L 490.00 533.50 ZM 597.80 534.75 L 598.10 529.00 L 585.55 529.00 L 573.00 529.00 L 573.00 508.50 L 573.00 488.00 L 565.50 488.00 L 558.00 488.00 L 558.00 513.83 C558.00,528.04 558.31,539.98 558.69,540.35 C559.07,540.73 567.95,540.92 578.44,540.77 L 597.50 540.50 L 597.80 534.75 ZM 644.50 535.00 L 644.50 529.50 L 632.00 529.00 L 619.50 528.50 L 619.23 508.25 L 618.96 488.00 L 611.48 488.00 L 604.00 488.00 L 604.00 513.83 C604.00,528.04 604.31,539.98 604.69,540.35 C605.07,540.73 614.18,540.92 624.94,540.77 L 644.50 540.50 L 644.50 535.00 ZM 665.54 535.00 C665.57,531.97 665.68,527.36 665.79,524.75 L 666.00 520.00 L 675.97 520.00 L 685.93 520.00 L 686.22 530.25 L 686.50 540.50 L 693.50 540.50 L 700.50 540.50 L 700.77 514.25 L 701.03 488.00 L 693.55 488.00 L 686.07 488.00 L 685.79 497.75 L 685.50 507.50 L 675.50 507.50 L 665.50 507.50 L 665.21 497.75 L 664.93 488.00 L 657.96 488.00 L 651.00 488.00 L 651.00 514.54 L 651.00 541.09 L 658.25 540.79 L 665.50 540.50 L 665.54 535.00 ZM 815.27 538.12 C824.87,533.45 826.47,521.83 818.44,515.21 C815.29,512.62 815.09,512.17 816.53,510.98 C820.89,507.36 822.18,500.19 819.43,494.87 C816.72,489.62 812.69,488.63 792.25,488.20 L 774.00 487.81 L 774.00 513.83 C774.00,537.75 774.14,539.89 775.75,540.37 C776.71,540.65 784.92,540.78 794.00,540.66 C808.97,540.46 810.94,540.23 815.27,538.12 ZM 546.00 514.00 L 546.00 488.00 L 538.50 488.00 L 531.00 488.00 L 531.00 514.00 L 531.00 540.00 L 538.50 540.00 L 546.00 540.00 L 546.00 514.00 ZM 418.67 458.84 C426.29,455.29 430.49,447.43 429.81,438.00 C429.26,430.50 425.42,424.52 419.23,421.54 C415.47,419.73 414.77,418.83 412.99,413.48 C411.89,410.17 409.40,405.10 407.47,402.23 C404.36,397.62 403.54,397.00 400.51,397.00 C394.51,397.00 393.31,403.01 398.62,406.49 C401.01,408.05 404.93,414.99 404.98,417.74 C405.00,418.79 399.07,422.00 397.11,422.00 C396.76,422.00 395.35,420.17 393.99,417.94 C390.77,412.67 383.85,407.00 380.65,407.00 C377.24,407.00 374.75,409.64 375.61,412.35 C376.34,414.65 378.80,416.92 380.61,416.97 C382.32,417.02 386.99,422.06 389.04,426.08 C390.74,429.41 390.76,430.01 389.35,434.09 C385.91,444.06 392.24,456.74 402.22,459.85 C409.65,462.16 411.83,462.03 418.67,458.84 ZM 576.50 458.58 C580.79,456.24 580.94,455.63 578.61,449.50 C576.44,443.80 576.61,433.46 578.95,428.31 C581.03,423.72 580.92,423.48 575.30,420.62 C571.16,418.52 561.85,418.52 557.70,420.62 C549.80,424.61 546.00,430.90 546.00,440.00 C546.00,450.25 551.34,457.45 561.22,460.53 C566.36,462.13 571.11,461.53 576.50,458.58 ZM 457.09 458.67 C462.39,455.87 466.71,449.42 467.59,442.99 C469.76,427.13 453.80,414.46 439.29,420.52 C433.06,423.13 432.78,423.67 435.25,428.35 C438.33,434.19 438.35,444.80 435.29,450.92 C434.08,453.34 433.32,455.71 433.61,456.18 C433.89,456.64 435.79,457.89 437.81,458.97 C443.12,461.77 451.47,461.64 457.09,458.67 ZM 522.05 452.00 L 529.63 443.76 L 533.67 444.44 L 537.72 445.13 L 538.24 438.56 C538.91,430.24 542.63,422.43 547.99,418.13 C551.29,415.47 552.00,414.29 552.00,411.40 C552.00,403.74 546.88,399.00 538.63,399.00 C532.80,399.00 531.11,400.46 515.12,419.38 C496.70,441.16 495.00,443.55 495.00,447.63 C495.00,455.83 501.18,461.40 509.49,460.68 C514.28,460.27 514.79,459.91 522.05,452.00 ZM 613.79 459.10 C626.24,452.71 629.45,436.73 620.41,426.17 C615.88,420.87 609.78,418.54 602.47,419.29 C592.19,420.35 585.04,427.51 584.20,437.58 C583.43,446.86 587.95,454.85 596.50,459.34 C600.70,461.55 609.24,461.43 613.79,459.10 ZM 483.34 441.19 C491.49,433.47 491.35,420.86 483.03,412.92 C476.43,406.63 464.70,405.30 458.53,410.15 L 455.93 412.20 L 461.21 415.36 C469.98,420.59 474.98,429.80 474.99,440.73 L 475.00 445.95 L 477.75 444.91 C479.26,444.34 481.78,442.66 483.34,441.19 ZM 510.84 413.53 C516.66,406.91 522.87,399.95 524.64,398.05 C527.67,394.80 527.77,394.46 526.43,391.86 C525.65,390.36 524.17,388.53 523.15,387.81 C521.83,386.88 521.15,384.86 520.82,380.91 C520.22,373.65 517.30,369.43 511.87,367.96 C507.90,366.90 503.18,367.36 499.77,369.14 C498.14,370.00 474.00,398.34 474.00,399.40 C474.00,399.68 476.04,400.81 478.54,401.92 C488.46,406.30 493.90,412.71 496.11,422.62 C497.56,429.09 496.62,429.67 510.84,413.53 ZM 456.51 392.56 C461.08,390.65 463.99,385.73 464.00,379.88 C464.01,366.10 444.63,362.12 438.53,374.65 C435.44,381.01 437.76,388.05 444.24,392.01 C448.10,394.36 451.80,394.53 456.51,392.56 ZM 571.10 391.74 C578.50,386.81 579.71,378.16 573.92,371.56 C568.65,365.56 558.84,365.84 553.53,372.14 C550.17,376.14 550.00,383.45 553.16,387.48 C558.30,394.01 565.22,395.65 571.10,391.74 ZM 508.10 596.40 C504.30,591.57 504.07,579.79 507.70,575.77 C510.21,573.01 516.05,573.72 517.76,577.00 C519.79,580.87 519.01,594.23 516.59,596.90 C514.01,599.75 510.57,599.55 508.10,596.40 ZM 278.98 519.25 C278.95,517.88 284.45,504.00 285.03,504.00 C285.89,504.00 291.82,518.85 291.20,519.46 C290.37,520.30 279.00,520.10 278.98,519.25 ZM 433.00 507.50 L 433.00 500.00 L 439.75 500.02 C447.43,500.03 448.47,500.47 449.91,504.27 C452.27,510.48 447.59,515.00 438.78,515.00 L 433.00 515.00 L 433.00 507.50 ZM 490.75 514.43 C490.34,514.01 490.00,510.59 490.00,506.83 L 490.00 500.00 L 497.00 500.00 C502.67,500.00 504.38,500.38 506.00,502.00 C508.66,504.66 508.53,508.28 505.65,511.62 C503.70,513.89 502.30,514.42 497.40,514.77 C494.16,515.00 491.16,514.85 490.75,514.43 ZM 788.67 529.33 C788.30,528.97 788.00,526.49 788.00,523.83 L 788.00 519.00 L 795.43 519.00 C805.27,519.00 808.00,520.07 808.00,523.92 C808.00,528.38 804.93,530.00 796.44,530.00 C792.53,530.00 789.03,529.70 788.67,529.33 ZM 788.67 508.33 C788.30,507.97 788.00,505.72 788.00,503.33 L 788.00 499.00 L 795.96 499.00 C802.96,499.00 804.06,499.25 805.02,501.04 C806.50,503.80 805.49,506.46 802.43,507.85 C799.72,509.08 789.77,509.44 788.67,508.33 ZM 402.00 442.00 C400.90,440.90 400.00,439.33 400.00,438.50 C400.00,436.43 403.62,433.00 405.81,433.00 C410.41,433.00 413.01,438.88 410.00,442.50 C408.25,444.61 404.37,444.37 402.00,442.00 Z" fill="rgb(239,233,232)"/>
</g>
</svg>